<?xml version="1.0" encoding="UTF-8"?>
<svg xmlns="http://www.w3.org/2000/svg" viewBox="0 0 200 64.5">
  <g fill="#fff">
    <path d="m185.74 18.58c0-2.59 2.06-4.64 4.62-4.64s4.64 2.01 4.64 4.64-2.11 4.64-4.64 4.64-4.62-2.08-4.62-4.64zm8.43 0c0-2.06-1.7-3.88-3.81-3.88s-3.81 1.79-3.81 3.88 1.72 3.88 3.81 3.88 3.81-1.77 3.81-3.88zm-4.72.53v1.94h-.84v-4.95h2.18c1.03 0 1.58.67 1.58 1.48 0 .77-.48 1.2-1.01 1.36v.02c.07.1.1.17.24.43l.93 1.65h-.98l-.94-1.75c-.1-.17-.14-.19-.33-.19h-.84zm0-.72h1.17c.6 0 .89-.31.89-.79s-.31-.81-.91-.81h-1.15z"></path>
    <path d="m30.8 38.02c-1.72 2.48-4.68 4.13-8.05 4.13-5.02 0-8.8-3.85-8.8-9.08 0-4.82 3.37-9.15 8.6-9.15 3.44 0 6.4 1.65 8.25 4.13zm.34-18.99c-2.61-2.13-5.98-3.37-9.77-3.37-9.08 0-16.37 7.57-16.37 17.4 0 4.54 1.65 8.67 4.27 11.69 2.96 3.44 7.64 5.64 12.59 5.64 3.37 0 6.54-1.03 9.29-3.37v2.68h8.6v-33.34h-8.6v2.68z"></path>
    <path d="m60.88 42.15c-3.37 0-6.33-1.65-8.05-4.13v-9.97c1.86-2.48 4.82-4.13 8.25-4.13 5.23 0 8.6 4.33 8.6 9.15 0 5.23-3.78 9.08-8.81 9.08m1.38-26.48c-3.78 0-7.15 1.24-9.77 3.37v-2.68h-8.6v47.17h8.94v-16.15c2.68 2.06 5.57 3.03 8.94 3.03 4.95 0 9.7-2.2 12.66-5.64 2.61-3.03 4.2-7.15 4.2-11.69 0-9.84-7.29-17.4-16.37-17.4"></path>
    <path d="m107.55 16.36h8.94v33.36h-8.94z"></path>
    <path d="m112.02 12.42c3.23 0 5.85-2.48 5.85-5.71s-2.61-5.71-5.85-5.71-5.85 2.48-5.85 5.71 2.61 5.71 5.85 5.71"></path>
    <path d="m146.45 16.36-9.15 20.36-9.15-20.36h-9.28l15.34 33.36h6.19l15.34-33.36z"></path>
    <path d="m162.06 28.74c.41-3.03 3.44-5.85 7.15-5.85s6.33 2.89 6.6 5.85h-13.76zm22.91 3.99c0-9.29-6.54-17.06-15.75-17.06-9.91 0-16.23 8.12-16.23 17.4 0 10.46 7.5 17.33 17.47 17.33 5.16 0 10.46-2.13 13.69-5.98l-5.09-5.09c-1.58 1.72-4.61 3.85-8.39 3.85-4.75 0-8.53-3.23-9.01-7.91h23.11c.14-.76.21-1.65.21-2.55"></path>
    <path d="m94.88 7.07h-8.94v9.29h-8.34v7.57h8.34v11.69c0 4.75.76 7.7 2.48 9.97 2.27 3.03 6.19 4.82 11.56 4.82 1.21 0 2.9-.14 4.2-.36v-7.89c-.62.14-2.34.34-3.65.34-2.2 0-3.65-.62-4.54-1.65-.76-.89-1.1-2.13-1.1-4.2v-12.73h9.29v-7.57h-9.29v-9.28z"></path>
  </g>
</svg>
